<svg width="222" height="91" viewBox="0 0 222 91" fill="none" xmlns="http://www.w3.org/2000/svg">
<path d="M32.36 45.992H34.152V57H3.752V55.208L7.272 54.76C7.95467 54.6747 8.36 54.504 8.488 54.248C8.616 53.9493 8.68 53.0747 8.68 51.624V18.856C8.68 17.4053 8.616 16.552 8.488 16.296C8.36 15.9973 7.95467 15.8053 7.272 15.72L3.752 15.272V13.48H21.288V15.272L17.768 15.72C17.0853 15.8053 16.68 15.9973 16.552 16.296C16.424 16.552 16.36 17.4053 16.36 18.856V54.76H26.856C27.88 54.76 28.6053 54.7387 29.032 54.696C29.4587 54.6107 29.736 54.4613 29.864 54.248C30.0347 53.992 30.184 53.608 30.312 53.096L32.36 45.992ZM64.1185 49.384C63.3505 52.3707 61.9212 54.504 59.8305 55.784C57.7398 57.0213 55.3078 57.64 52.5345 57.64C47.4145 57.64 43.5745 56.168 41.0145 53.224C38.4545 50.2373 37.1745 46.2907 37.1745 41.384V40.104C37.1745 35.1973 38.3692 31.272 40.7585 28.328C43.1905 25.384 46.6892 23.912 51.2545 23.912C53.8145 23.912 56.0758 24.424 58.0385 25.448C60.0438 26.4293 61.6012 27.8587 62.7105 29.736C63.8625 31.6133 64.4385 33.896 64.4385 36.584C64.4385 37.224 64.3958 37.9067 64.3105 38.632C64.2678 39.3573 64.1612 40.0827 63.9905 40.808H45.0465V42.664C45.0465 47.1867 45.6865 50.4507 46.9665 52.456C48.2465 54.4187 50.3158 55.4 53.1745 55.4C55.0092 55.4 56.5665 54.8667 57.8465 53.8C59.1265 52.6907 59.8518 50.8347 60.0225 48.232L64.1185 49.384ZM51.2545 26.152C49.1638 26.152 47.6065 27.112 46.5825 29.032C45.5585 30.952 45.0465 34.1307 45.0465 38.568H56.6305C56.8012 37.7147 56.9078 36.9253 56.9505 36.2C57.0358 35.432 57.0785 34.728 57.0785 34.088C57.0785 31.3573 56.5452 29.352 55.4785 28.072C54.4118 26.792 53.0038 26.152 51.2545 26.152ZM97.3535 49.384C96.5855 52.3707 95.1562 54.504 93.0655 55.784C90.9748 57.0213 88.5428 57.64 85.7695 57.64C80.6495 57.64 76.8095 56.168 74.2495 53.224C71.6895 50.2373 70.4095 46.2907 70.4095 41.384V40.104C70.4095 35.1973 71.6042 31.272 73.9935 28.328C76.4255 25.384 79.9242 23.912 84.4895 23.912C87.0495 23.912 89.3108 24.424 91.2735 25.448C93.2788 26.4293 94.8362 27.8587 95.9455 29.736C97.0975 31.6133 97.6735 33.896 97.6735 36.584C97.6735 37.224 97.6308 37.9067 97.5455 38.632C97.5028 39.3573 97.3962 40.0827 97.2255 40.808H78.2815V42.664C78.2815 47.1867 78.9215 50.4507 80.2015 52.456C81.4815 54.4187 83.5508 55.4 86.4095 55.4C88.2442 55.4 89.8015 54.8667 91.0815 53.8C92.3615 52.6907 93.0868 50.8347 93.2575 48.232L97.3535 49.384ZM84.4895 26.152C82.3988 26.152 80.8415 27.112 79.8175 29.032C78.7935 30.952 78.2815 34.1307 78.2815 38.568H89.8655C90.0362 37.7147 90.1428 36.9253 90.1855 36.2C90.2708 35.432 90.3135 34.728 90.3135 34.088C90.3135 31.3573 89.7802 29.352 88.7135 28.072C87.6468 26.792 86.2388 26.152 84.4895 26.152ZM144.123 29.928L137.147 57H131.323L123.643 31.272L115.899 57H110.587L103.675 29.928C103.419 28.9467 103.205 28.264 103.035 27.88C102.907 27.4533 102.736 27.176 102.523 27.048C102.309 26.92 101.989 26.8347 101.563 26.792L98.0425 26.344V24.552H115.067V26.344L111.547 26.792C110.864 26.8773 110.48 27.0693 110.395 27.368C110.309 27.624 110.459 28.4773 110.843 29.928L115.835 49.192L123.195 24.552H128.827L136.443 50.28L141.627 29.928C142.011 28.4773 142.16 27.624 142.075 27.368C141.989 27.0693 141.605 26.8773 140.923 26.792L137.403 26.344V24.552H149.755V26.344L146.235 26.792C145.808 26.8347 145.488 26.92 145.275 27.048C145.061 27.176 144.869 27.4533 144.699 27.88C144.571 28.264 144.379 28.9467 144.123 29.928ZM181.647 55.4C180.964 56.04 180.132 56.5733 179.151 57C178.212 57.4267 177.06 57.64 175.695 57.64C173.946 57.64 172.474 57.256 171.279 56.488C170.127 55.72 169.359 54.632 168.975 53.224C167.567 54.76 166.01 55.8907 164.303 56.616C162.639 57.2987 160.932 57.64 159.183 57.64C156.239 57.64 154.042 56.8293 152.591 55.208C151.14 53.544 150.415 51.4747 150.415 49C150.415 46.4827 151.332 44.456 153.167 42.92C155.002 41.3413 158.244 40.552 162.895 40.552H168.719V35.368C168.719 31.8267 168.25 29.416 167.311 28.136C166.415 26.8133 165.156 26.152 163.535 26.152C162.468 26.152 161.487 26.4293 160.591 26.984C159.695 27.496 159.055 28.4773 158.671 29.928C158.33 31.336 158.394 33.384 158.863 36.072L151.823 35.048C151.482 33.0853 151.695 31.272 152.463 29.608C153.274 27.9013 154.618 26.536 156.495 25.512C158.372 24.4453 160.762 23.912 163.663 23.912C166.948 23.912 169.487 24.4453 171.279 25.512C173.071 26.5787 174.308 27.9867 174.991 29.736C175.716 31.4853 176.079 33.3627 176.079 35.368V50.152C176.079 52.328 176.271 53.6933 176.655 54.248C177.039 54.8027 177.466 55.08 177.935 55.08C178.703 55.08 179.556 54.632 180.495 53.736L181.647 55.4ZM161.999 54.248C163.108 54.248 164.196 53.9707 165.263 53.416C166.372 52.8187 167.524 51.7307 168.719 50.152V42.792H163.919C161.828 42.792 160.314 43.2827 159.375 44.264C158.436 45.2453 157.967 46.7813 157.967 48.872C157.967 50.5787 158.308 51.9013 158.991 52.84C159.674 53.7787 160.676 54.248 161.999 54.248ZM198.475 60.2C197.493 62.888 196.405 65.0427 195.211 66.664C194.059 68.2853 192.629 69.4587 190.923 70.184C189.216 70.9093 187.083 71.272 184.523 71.272V64.232C187.125 64.232 189.216 64.04 190.795 63.656C192.416 63.3147 193.653 62.7387 194.507 61.928C195.403 61.16 196.064 60.1573 196.491 58.92L197.131 57H193.803L184.715 29.928C184.416 28.9467 184.16 28.264 183.947 27.88C183.776 27.4533 183.563 27.176 183.307 27.048C183.093 26.92 182.752 26.8347 182.283 26.792L178.763 26.344V24.552H196.043V26.344L192.523 26.792C192.011 26.8347 191.691 27.0053 191.563 27.304C191.477 27.56 191.669 28.4347 192.139 29.928L199.115 51.048L206.347 29.672C206.816 28.3067 207.008 27.5173 206.923 27.304C206.88 27.048 206.539 26.8773 205.899 26.792L202.379 26.344V24.552H214.603V26.344L211.083 26.792C210.443 26.8773 210.016 27.048 209.803 27.304C209.589 27.56 209.248 28.3493 208.779 29.672L198.475 60.2Z" fill="white"/>
<path d="M1 68L216 90" stroke="white" stroke-width="2"/>
</svg>
