<svg width="222" height="92" viewBox="0 0 222 92" fill="none" xmlns="http://www.w3.org/2000/svg">
<path d="M11.752 55.448C9.96 55.448 8.53067 54.8933 7.464 53.784C6.39733 52.632 5.864 50.8187 5.864 48.344V10.392H9.896V47.64C9.896 49.0907 10.1733 50.136 10.728 50.776C11.2827 51.416 12.0293 51.736 12.968 51.736C13.3947 51.736 13.864 51.6933 14.376 51.608C14.888 51.48 15.4213 51.3307 15.976 51.16V54.616C15.2507 54.872 14.504 55.064 13.736 55.192C13.0107 55.3627 12.3493 55.448 11.752 55.448ZM34.78 55.448C32.4333 55.448 30.3427 55.0427 28.508 54.232C26.716 53.4213 25.2227 52.2907 24.028 50.84C22.8333 49.3893 21.916 47.6827 21.276 45.72C20.6787 43.7573 20.38 41.6667 20.38 39.448C20.38 37.1867 20.6787 35.0747 21.276 33.112C21.8733 31.1067 22.748 29.3573 23.9 27.864C25.0947 26.328 26.5453 25.1333 28.252 24.28C30.0013 23.4267 32.0067 23 34.268 23C36.6573 23 38.7053 23.4267 40.412 24.28C42.1613 25.0907 43.5693 26.2213 44.636 27.672C45.7453 29.08 46.556 30.6373 47.068 32.344C47.6227 34.0507 47.9 35.7787 47.9 37.528C47.9 37.8693 47.8787 38.3173 47.836 38.872C47.836 39.4267 47.7933 39.896 47.708 40.28H24.348C24.4333 43.9067 25.3933 46.7227 27.228 48.728C29.1053 50.7333 31.6227 51.736 34.78 51.736C36.7853 51.736 38.492 51.4373 39.9 50.84C41.3507 50.2 42.7373 49.1547 44.06 47.704L46.94 50.264C45.7453 51.5013 44.5293 52.504 43.292 53.272C42.0547 53.9973 40.732 54.552 39.324 54.936C37.9587 55.2773 36.444 55.448 34.78 55.448ZM43.868 38.232C43.9533 37.8907 43.996 37.5493 43.996 37.208C43.996 36.824 43.996 36.4613 43.996 36.12C43.996 35.0107 43.804 33.88 43.42 32.728C43.0787 31.576 42.524 30.5307 41.756 29.592C40.988 28.6533 39.9853 27.8853 38.748 27.288C37.5107 26.6907 36.0387 26.392 34.332 26.392C32.3693 26.392 30.6413 26.8827 29.148 27.864C27.6973 28.8453 26.5667 30.1467 25.756 31.768C24.9453 33.3893 24.476 35.224 24.348 37.272H45.212L43.868 38.232ZM68.4525 55.448C66.1058 55.448 64.0152 55.0427 62.1805 54.232C60.3885 53.4213 58.8952 52.2907 57.7005 50.84C56.5058 49.3893 55.5885 47.6827 54.9485 45.72C54.3512 43.7573 54.0525 41.6667 54.0525 39.448C54.0525 37.1867 54.3512 35.0747 54.9485 33.112C55.5458 31.1067 56.4205 29.3573 57.5725 27.864C58.7672 26.328 60.2178 25.1333 61.9245 24.28C63.6738 23.4267 65.6792 23 67.9405 23C70.3298 23 72.3778 23.4267 74.0845 24.28C75.8338 25.0907 77.2418 26.2213 78.3085 27.672C79.4178 29.08 80.2285 30.6373 80.7405 32.344C81.2952 34.0507 81.5725 35.7787 81.5725 37.528C81.5725 37.8693 81.5512 38.3173 81.5085 38.872C81.5085 39.4267 81.4658 39.896 81.3805 40.28H58.0205C58.1058 43.9067 59.0658 46.7227 60.9005 48.728C62.7778 50.7333 65.2952 51.736 68.4525 51.736C70.4578 51.736 72.1645 51.4373 73.5725 50.84C75.0232 50.2 76.4098 49.1547 77.7325 47.704L80.6125 50.264C79.4178 51.5013 78.2018 52.504 76.9645 53.272C75.7272 53.9973 74.4045 54.552 72.9965 54.936C71.6312 55.2773 70.1165 55.448 68.4525 55.448ZM77.5405 38.232C77.6258 37.8907 77.6685 37.5493 77.6685 37.208C77.6685 36.824 77.6685 36.4613 77.6685 36.12C77.6685 35.0107 77.4765 33.88 77.0925 32.728C76.7512 31.576 76.1965 30.5307 75.4285 29.592C74.6605 28.6533 73.6578 27.8853 72.4205 27.288C71.1832 26.6907 69.7112 26.392 68.0045 26.392C66.0418 26.392 64.3138 26.8827 62.8205 27.864C61.3698 28.8453 60.2392 30.1467 59.4285 31.768C58.6178 33.3893 58.1485 35.224 58.0205 37.272H78.8845L77.5405 38.232ZM94.5805 55L85.4285 23.448H89.7165L96.7565 48.984L105.269 23.448H108.981L117.557 48.856L124.597 23.448H128.885L119.669 55H115.829L107.189 29.016L98.4845 55H94.5805ZM155.786 55L155.53 47.832V35.352C155.53 32.4507 154.783 30.2533 153.29 28.76C151.796 27.2667 149.599 26.52 146.698 26.52C144.82 26.52 143.092 26.904 141.514 27.672C139.935 28.3973 138.442 29.656 137.034 31.448L134.09 28.952C135.796 26.904 137.695 25.4107 139.786 24.472C141.919 23.4907 144.308 23 146.954 23C150.964 23 154.058 24.0667 156.234 26.2C158.41 28.2907 159.498 31.3413 159.498 35.352V55H155.786ZM144.65 55.448C142.303 55.448 140.255 55.0427 138.506 54.232C136.799 53.4213 135.476 52.312 134.538 50.904C133.642 49.4533 133.194 47.768 133.194 45.848C133.194 44.1413 133.514 42.712 134.154 41.56C134.836 40.3653 135.711 39.4267 136.778 38.744C137.93 37.976 139.231 37.4427 140.682 37.144C142.175 36.8453 143.775 36.696 145.482 36.696H155.914V39.768H145.994C144.756 39.768 143.54 39.8747 142.346 40.088C141.194 40.3013 140.212 40.728 139.402 41.368C138.719 41.8373 138.186 42.456 137.802 43.224C137.46 43.9493 137.29 44.824 137.29 45.848C137.29 47.768 137.972 49.304 139.338 50.456C140.746 51.5653 142.644 52.12 145.034 52.12C146.954 52.12 148.703 51.672 150.282 50.776C151.86 49.8373 153.119 48.5573 154.058 46.936C155.039 45.3147 155.53 43.5013 155.53 41.496L157.258 43.416C157.044 45.8053 156.362 47.9173 155.21 49.752C154.058 51.5867 152.564 52.9947 150.73 53.976C148.895 54.9573 146.868 55.448 144.65 55.448ZM171.172 67.992L176.996 53.976L164.516 23.448H168.932L179.108 49.88L189.348 23.448H193.764L175.588 67.992H171.172Z" fill="white"/>
<path d="M1 68L189 90" stroke="white" stroke-width="3"/>
</svg>
