<svg width="247" height="97" viewBox="0 0 247 97" fill="none" xmlns="http://www.w3.org/2000/svg">
<path d="M24.2948 20.1903C26.7635 20.0176 28.6051 20.3593 29.8198 21.2154C31.077 22.0684 31.7622 23.3036 31.8753 24.921C31.9408 25.8574 31.8558 26.7829 31.6204 27.6976L23.8737 60.959C23.7817 61.4786 23.7491 61.93 23.7759 62.3131C23.8146 62.8664 23.9523 63.3059 24.1889 63.6315C24.4225 63.9145 24.7413 64.1916 25.1452 64.4628C25.464 64.7399 25.6946 64.9804 25.8372 65.1843C25.9768 65.3456 26.0145 65.5782 25.9502 65.8821C25.776 66.4503 25.3787 66.8844 24.7581 67.1844C24.1375 67.4844 23.1675 67.6806 21.8481 67.7729L7.29161 68.7907C6.18498 68.8681 5.36439 68.7544 4.82982 68.4496C4.29228 68.1023 4.08781 67.6247 4.21639 67.0169C4.35092 66.4943 4.76658 66.0161 5.46336 65.5825C6.07799 65.1973 6.58175 64.7558 6.97464 64.2578C7.36753 63.7599 7.67723 62.9897 7.90374 61.9474L15.3803 29.4106C15.4812 29.0186 15.5227 28.6949 15.5049 28.4395C15.4721 27.9713 15.3176 27.5972 15.0414 27.3171C14.8078 27.0341 14.489 26.7569 14.0851 26.4858C13.6357 26.1751 13.2956 25.8994 13.065 25.6589C12.8768 25.4155 12.8318 25.0765 12.9297 24.6419C13.1166 23.6451 14.3978 22.7001 16.7733 21.8069C19.1488 20.9137 21.6559 20.3748 24.2948 20.1903ZM49.2289 31.5987C54.6344 31.2208 58.6111 31.8195 61.1592 33.3949C63.7044 34.9278 65.0707 37.0349 65.2582 39.7164C65.3147 40.5251 65.2817 41.2759 65.1591 41.9688C64.7171 44.8226 63.0708 46.9693 60.2203 48.409C57.4094 49.8031 54.0247 50.6386 50.0664 50.9154C48.0659 51.0553 46.1843 51.0585 44.4213 50.9252C44.5335 53.1414 45.238 54.6533 46.5349 55.4608C47.8317 56.2683 49.5867 56.5947 51.8 56.4399C52.8215 56.3685 53.793 56.1936 54.7145 55.9153C55.633 55.5945 56.7995 55.1494 58.2139 54.58C59.3759 54.071 60.1697 53.8016 60.5953 53.7719C61.0635 53.7391 61.3169 53.9994 61.3556 54.5527C61.5024 56.0395 61.0592 57.653 60.026 59.3933C58.9899 61.091 57.3842 62.5934 55.2087 63.9003C53.0332 65.2072 50.3494 65.9723 47.1572 66.1955C42.4327 66.5259 38.4762 65.605 35.2876 63.4328C32.0989 61.2606 30.3454 57.8974 30.0269 53.3432C29.9376 52.0663 30.0037 50.5647 30.2252 48.8384C30.9232 43.5288 32.9675 39.4295 36.3583 36.5406C39.7886 33.6062 44.0788 31.9589 49.2289 31.5987ZM44.6004 47.0633C44.7736 47.0939 45.0092 47.0989 45.3071 47.078C47.0948 46.953 48.3987 46.0278 49.219 44.3024C50.0393 42.577 50.3568 40.6942 50.1714 38.6542C50.0455 37.4654 49.6633 36.8933 49.0248 36.938C48.5567 36.9707 48.0301 37.3925 47.4453 38.2033C46.8574 38.9715 46.2964 40.1227 45.7621 41.6571C45.2704 43.1884 44.8831 44.9905 44.6004 47.0633ZM84.3157 29.1452C89.7212 28.7672 93.698 29.366 96.2461 30.9414C98.7912 32.4743 100.158 34.5814 100.345 37.2629C100.402 38.0716 100.369 38.8224 100.246 39.5153C99.8039 42.369 98.1576 44.5158 95.3071 45.9555C92.4962 47.3496 89.1115 48.1851 85.1532 48.4619C83.1528 48.6018 81.2711 48.605 79.5081 48.4717C79.6204 50.6879 80.3249 52.1998 81.6217 53.0073C82.9185 53.8148 84.6735 54.1412 86.8868 53.9864C87.9083 53.915 88.8798 53.7401 89.8013 53.4618C90.7198 53.141 91.8863 52.6958 93.3007 52.1265C94.4627 51.6175 95.2565 51.3481 95.6821 51.3184C96.1503 51.2856 96.4038 51.5459 96.4424 52.0992C96.5892 53.586 96.146 55.1995 95.1129 56.9398C94.0768 58.6375 92.471 60.1399 90.2955 61.4468C88.1201 62.7537 85.4362 63.5188 82.244 63.742C77.5196 64.0724 73.563 63.1515 70.3744 60.9793C67.1858 58.8071 65.4322 55.4439 65.1138 50.8897C65.0245 49.6128 65.0905 48.1112 65.312 46.3849C66.01 41.0752 68.0543 36.976 71.4451 34.0871C74.8754 31.1526 79.1656 29.5054 84.3157 29.1452ZM79.6872 44.6098C79.8604 44.6404 80.096 44.6453 80.3939 44.6245C82.1816 44.4995 83.4855 43.5743 84.3059 41.8489C85.1262 40.1234 85.4436 38.2407 85.2582 36.2007C85.1323 35.0119 84.7501 34.4398 84.1117 34.4845C83.6435 34.5172 83.1169 34.939 82.5321 35.7497C81.9442 36.518 81.3832 37.6692 80.8489 39.2036C80.3572 40.7349 79.97 42.537 79.6872 44.6098ZM157.727 33.4428C157.992 37.2309 156.943 41.1964 154.581 45.3392C152.219 49.4821 149.107 52.9931 145.245 55.8721C141.423 58.7057 137.575 60.2579 133.702 60.5287C130.637 60.743 128.004 60.3925 125.801 59.4773C123.599 58.562 122.108 57.1265 121.33 55.1707C119.889 57.1961 118.245 58.7653 116.398 59.8781C114.551 60.991 112.585 61.6204 110.5 61.7662C107.605 61.9686 105.194 61.4315 103.266 60.1549C101.377 58.8328 100.336 56.7884 100.142 54.0218C100.041 52.5747 100.171 51.0686 100.532 49.5036L103.232 36.7402C103.293 36.3937 103.318 36.1354 103.306 35.9651C103.276 35.5395 103.145 35.1852 102.911 34.9021C102.677 34.6191 102.357 34.3207 101.95 34.007C101.273 33.4983 100.92 33.0311 100.89 32.6055C100.806 32.0126 101.123 31.3489 101.841 30.6143C102.56 29.8797 103.585 29.252 104.918 28.7311C106.289 28.1647 107.848 27.8205 109.593 27.6985C112.445 27.4991 114.707 28.0466 116.38 29.341C118.093 30.5899 119.026 32.321 119.181 34.5343C119.25 35.5132 119.154 36.5892 118.894 37.7622L116.396 48.8434C116.268 49.4512 116.211 49.8615 116.226 50.0743C116.265 50.6276 116.443 51.0428 116.762 51.3199C117.123 51.594 117.581 51.7118 118.134 51.6731C118.9 51.6195 119.521 51.3195 119.996 50.773C120.51 50.181 120.981 49.2713 121.409 48.0438L124.173 35.2759C124.234 34.9294 124.259 34.6711 124.247 34.5008C124.217 34.0752 124.086 33.7208 123.852 33.4378C123.618 33.1547 123.298 32.8563 122.891 32.5426C122.214 32.034 121.861 31.5668 121.831 31.1412C121.747 30.5483 122.064 29.8845 122.782 29.15C123.501 28.4154 124.526 27.7877 125.858 27.2668C127.23 26.7004 128.789 26.3562 130.534 26.2341C133.428 26.0318 135.71 26.5565 137.38 27.8084C139.05 29.0603 139.964 30.8141 140.122 33.07C140.184 33.9638 140.089 35.0397 139.834 36.2979L136.64 50.2507C136.57 50.4695 136.549 50.7917 136.579 51.2173C136.618 51.7706 136.839 52.1828 137.243 52.454C137.647 52.7251 138.189 52.8369 138.87 52.7893C139.807 52.7238 140.864 52.2436 142.042 51.3486C143.259 50.408 144.41 49.13 145.495 47.5144C146.619 45.8532 147.49 43.9318 148.107 41.7501C146.3 40.3795 144.984 38.9959 144.16 37.5993C143.378 36.1998 142.933 34.7339 142.826 33.2017C142.674 31.031 143.142 29.1591 144.229 27.5861C145.314 25.9705 146.984 25.0838 149.24 24.9261C151.496 24.7683 153.425 25.4461 155.028 26.9593C156.631 28.4725 157.53 30.6337 157.727 33.4428ZM178.465 22.8824C183.36 22.5402 187.34 23.1815 190.404 24.8063C193.466 26.3886 195.127 29.0312 195.386 32.7341C195.484 34.1387 195.34 35.7527 194.954 37.576L192.953 46.5695C192.922 46.7428 192.916 46.9571 192.934 47.2124C192.981 47.8935 193.282 48.2146 193.835 48.1759C194.346 48.1402 194.757 47.8976 195.067 47.4482C195.418 46.9532 195.657 46.7013 195.784 46.6923C195.997 46.6774 196.178 46.8145 196.326 47.1035C196.517 47.3896 196.626 47.7241 196.653 48.1072C196.776 49.2534 196.411 50.4551 195.558 51.7123C194.747 52.9666 193.603 54.0304 192.124 54.9036C190.645 55.7769 188.991 56.2776 187.161 56.4055C184.948 56.5603 183.025 56.2884 181.394 55.5898C179.763 54.8913 178.594 53.7754 177.888 52.2422C176.718 53.8638 175.29 55.1612 173.605 56.1345C171.916 57.0652 170.072 57.6005 168.071 57.7404C165.816 57.8981 163.892 57.605 162.3 56.8608C160.705 56.0742 159.477 55.0266 158.616 53.7182C157.794 52.3642 157.33 50.9211 157.222 49.3888C157.175 48.7078 157.193 48.0436 157.276 47.3963C157.751 44.4118 159.065 42.0959 161.217 40.4484C163.411 38.798 166.083 37.8627 169.232 37.6425C172.765 37.3954 176.273 37.7062 179.755 38.5747L181.056 34.2494C181.485 32.4231 181.665 31.0204 181.596 30.0415C181.482 29.0229 181.088 28.2806 180.414 27.8145C179.74 27.3484 178.743 27.1615 177.424 27.2538C177.727 27.9169 177.903 28.6103 177.954 29.3338C178.064 30.9086 177.563 32.3123 176.452 33.5448C175.341 34.7774 173.678 35.471 171.465 35.6258C169.379 35.7716 167.71 35.4393 166.455 34.6288C165.241 33.7728 164.586 32.6638 164.49 31.3018C164.342 29.1736 165.41 27.324 167.695 25.7527C169.98 24.1815 173.57 23.2247 178.465 22.8824ZM176.243 42.4772C175.051 42.5606 174.105 43.0972 173.404 44.0871C172.743 45.0316 172.45 46.0358 172.524 47.0999C172.572 47.7809 172.759 48.3238 173.087 48.7286C173.457 49.1304 173.94 49.3105 174.536 49.2688C175.09 49.2301 175.671 48.9756 176.279 48.5053C176.927 47.9895 177.369 47.2743 177.605 46.3597L178.682 42.4991C177.95 42.422 177.136 42.4147 176.243 42.4772ZM229.398 19.3209C231.271 19.1899 232.814 19.8519 234.028 21.3068C235.281 22.7161 235.998 24.7189 236.18 27.3153C236.338 29.5711 236.103 32.0254 235.476 34.6783C234.267 40.0237 232.08 45.138 228.914 50.0214C225.791 54.9018 222.072 58.9043 217.757 62.029C213.484 65.1506 209.113 66.8677 204.644 67.1802C202.431 67.335 200.489 67.0858 198.818 66.4328C197.189 65.7768 195.926 64.8386 195.028 63.6183C194.088 62.401 193.567 61.0687 193.466 59.6216C193.421 58.9831 193.478 58.2734 193.637 57.4924C193.937 56.2739 194.512 55.3141 195.361 54.6132C196.21 53.9122 197.252 53.5186 198.486 53.4323C200.444 53.2954 202.086 53.8435 203.413 55.0766C204.785 56.3493 205.723 58.1443 206.227 60.4614C208.942 60.1432 211.372 58.7972 213.515 56.4232C211.318 56.1919 209.65 55.5814 208.511 54.5918C207.412 53.5566 206.591 51.9032 206.047 49.6316L202.4 34.1683C202.216 33.3686 201.985 32.8287 201.709 32.5486C201.472 32.223 201.163 32.0735 200.78 32.1003C200.482 32.1212 200.13 32.2954 199.725 32.6231C199.363 32.9479 199.097 33.1162 198.927 33.1281C198.586 33.1519 198.391 32.802 198.34 32.0784C198.298 31.4826 198.36 30.8367 198.525 30.1408C199.122 27.6611 200.405 25.5184 202.374 23.7127C204.341 21.8643 206.707 20.8434 209.474 20.6499C212.198 20.4595 214.255 21.1283 215.645 22.6564C217.078 24.1815 218.103 26.6119 218.721 29.9475L221.619 43.8593C221.821 44.9145 222.241 45.4197 222.879 45.3751C223.646 45.3215 224.492 44.578 225.418 43.1445C226.341 41.6685 227.203 39.6194 228.003 36.9972C226.646 35.9373 225.575 34.6863 224.79 33.2442C224.005 31.8022 223.553 30.2299 223.434 28.5274C223.341 27.2079 223.428 26.0043 223.694 24.9164C224.086 23.1782 224.784 21.8462 225.789 20.9206C226.833 19.9494 228.036 19.4161 229.398 19.3209Z" fill="white"/>
<path d="M5 72.9998L193 94.9998" stroke="white" stroke-width="3"/>
</svg>
